Coordinates
version=1
nRows=5
nColumns=40
inDegrees=yes

Units are S.I. units (second, meters, Newtons, ...)
Angles are in degrees.

endheader
time	pelvis_tilt	pelvis_list	pelvis_rotation	pelvis_tx	pelvis_ty	pelvis_tz	hip_flexion_r	hip_adduction_r	hip_rotation_r	knee_angle_r	knee_angle_r_beta	ankle_angle_r	subtalar_angle_r	mtp_angle_r	hip_flexion_l	hip_adduction_l	hip_rotation_l	knee_angle_l	knee_angle_l_beta	ankle_angle_l	subtalar_angle_l	mtp_angle_l	lumbar_extension	lumbar_bending	lumbar_rotation	arm_flex_r	arm_add_r	arm_rot_r	elbow_flex_r	pro_sup_r	wrist_flex_r	wrist_dev_r	arm_flex_l	arm_add_l	arm_rot_l	elbow_flex_l	pro_sup_l	wrist_flex_l	wrist_dev_l
      3.68500000	     -3.14062097	     -5.12851286	     -2.90412493	      0.78891378	      0.92177789	      0.49298520	     20.79853178	      2.70642851	     -9.52221531	     21.84419571	     21.84419571	      5.45726033	     -4.06021760	     -4.61707539	      4.57027594	     -9.53959941	     -5.66482463	     36.54647683	     36.54647683	     15.47114257	    -14.52646761	     -6.69853169	     -9.24748034	      7.65548918	     -0.63243430	     -1.80400855	    -11.62658468	     -9.18834344	     32.32215091	     46.46660451	      0.00000000	      0.00000000	     11.59448117	    -12.92361320	     -7.66750016	     72.61825586	     47.54711486	      0.00000000	      0.00000000
      3.69857143	     -2.96977933	     -5.21919848	     -2.45461525	      0.78901632	      0.92270797	      0.49536059	     20.03425349	      2.83997363	     -9.94097559	     21.72156779	     21.72156779	      5.91103420	     -3.95681222	     -4.71792366	      6.31615702	    -10.10752037	     -4.85157849	     40.47541674	     40.47541674	     13.76948649	    -15.43711812	     -7.02388459	     -9.38664971	      7.69875628	     -0.72720908	     -0.14812628	    -11.78803897	     -9.16990597	     33.27349626	     46.43586625	      0.00000000	      0.00000000	     10.96501750	    -12.58935912	     -7.32540328	     71.10646276	     47.49501943	      0.00000000	      0.00000000
      3.71214286	     -2.94527016	     -5.24105376	     -1.98906026	      0.78888418	      0.92340630	      0.49753359	     19.43718359	      2.85094307	    -10.55206790	     21.60208095	     21.60208095	      6.42931287	     -3.45723337	     -4.68054188	      8.31971994	    -10.50498779	     -3.89169837	     44.34927780	     44.34927780	     11.89233210	    -16.43939301	     -7.10405396	     -9.23496461	      7.67356439	     -0.29889361	      0.62350002	    -12.26707244	     -8.60709494	     35.34218521	     46.29837477	      0.00000000	      0.00000000	     11.55866100	    -11.82551739	     -6.66862228	     66.39770376	     47.38257994	      0.00000000	      0.00000000
      3.72571429	     -2.90106385	     -5.30038633	     -1.55427073	      0.78845485	      0.92399993	      0.49971608	     18.82779797	      2.93396311	    -11.08865191	     21.44328506	     21.44328506	      6.81611682	     -3.10635847	     -4.76815916	     10.38350101	    -10.93450347	     -3.00168850	     48.18021979	     48.18021979	     10.33195008	    -16.98439477	     -6.39186079	     -9.23314684	      7.66534613	     -0.48501908	      2.35036582	    -12.48874856	     -8.51807048	     36.74010598	     46.24203499	      0.00000000	      0.00000000	     10.86764965	    -11.65804132	     -6.23722460	     64.25455569	     47.31405803	      0.00000000	      0.00000000
      3.73928571	     -2.78043201	     -5.46703335	     -1.10549556	      0.78789576	      0.92459595	      0.50174031	     18.12699169	      3.13235030	    -11.65175029	     21.25270108	     21.25270108	      7.19063767	     -2.81521021	     -4.85315568	     12.37259937	    -11.43518538	     -2.12145339	     51.75723217	     51.75723217	      8.86066948	    -17.40444497	     -5.64124695	     -9.40216781	      7.75204023	     -0.33340267	      3.98036676	    -12.87117044	     -8.46831269	     37.73994398	     46.20813440	      0.00000000	      0.00000000	     10.21904890	    -11.25761913	     -5.94421502	     62.61187877	     47.26270353	      0.00000000	      0.00000000
